<svg width="512" height="512" viewBox="0 0 512 512" fill="none" xmlns="http://www.w3.org/2000/svg">
<rect width="512" height="512" rx="30" fill="white"/>
<path d="M86.55 293.5V280.9L144.75 261.4V259.6L86.55 240.1V227.5L149.25 249.1V271.9L86.55 293.5ZM277.741 313H266.041V208H277.741V250.3H279.541C282.141 245.8 285.741 242.4 290.341 240.1C294.941 237.7 299.941 236.5 305.341 236.5C309.941 236.5 314.291 237.35 318.391 239.05C322.491 240.75 326.091 243.2 329.191 246.4C332.391 249.6 334.891 253.55 336.691 258.25C338.591 262.95 339.541 268.3 339.541 274.3V277.3C339.541 283.4 338.641 288.8 336.841 293.5C335.041 298.2 332.541 302.15 329.341 305.35C326.241 308.55 322.591 311 318.391 312.7C314.191 314.3 309.741 315.1 305.041 315.1C302.641 315.1 300.191 314.8 297.691 314.2C295.191 313.7 292.791 312.9 290.491 311.8C288.291 310.6 286.241 309.2 284.341 307.6C282.441 305.9 280.841 303.9 279.541 301.6H277.741V313ZM302.641 304C306.241 304 309.541 303.4 312.541 302.2C315.541 300.9 318.141 299.1 320.341 296.8C322.641 294.5 324.391 291.7 325.591 288.4C326.891 285.1 327.541 281.4 327.541 277.3V274.3C327.541 270.3 326.891 266.7 325.591 263.5C324.391 260.2 322.641 257.4 320.341 255.1C318.141 252.7 315.491 250.85 312.391 249.55C309.391 248.25 306.141 247.6 302.641 247.6C299.141 247.6 295.891 248.3 292.891 249.7C289.891 251 287.241 252.85 284.941 255.25C282.741 257.65 280.991 260.55 279.691 263.95C278.391 267.25 277.741 270.9 277.741 274.9V276.7C277.741 280.8 278.391 284.55 279.691 287.95C280.991 291.25 282.741 294.1 284.941 296.5C287.241 298.9 289.891 300.75 292.891 302.05C295.891 303.35 299.141 304 302.641 304ZM430.187 286.6C429.387 290.7 427.987 294.5 425.987 298C424.087 301.5 421.637 304.55 418.637 307.15C415.637 309.65 412.137 311.6 408.137 313C404.137 314.4 399.687 315.1 394.787 315.1C389.587 315.1 384.637 314.25 379.937 312.55C375.337 310.85 371.287 308.4 367.787 305.2C364.287 301.9 361.487 297.9 359.387 293.2C357.387 288.5 356.387 283.1 356.387 277V275.2C356.387 269.2 357.387 263.8 359.387 259C361.487 254.2 364.287 250.15 367.787 246.85C371.287 243.55 375.337 241 379.937 239.2C384.637 237.4 389.587 236.5 394.787 236.5C399.487 236.5 403.837 237.2 407.837 238.6C411.837 240 415.337 242 418.337 244.6C421.437 247.1 423.937 250.1 425.837 253.6C427.837 257.1 429.187 260.9 429.887 265L418.187 267.7C417.887 265.1 417.137 262.6 415.937 260.2C414.837 257.7 413.287 255.55 411.287 253.75C409.387 251.85 407.037 250.35 404.237 249.25C401.437 248.15 398.187 247.6 394.487 247.6C390.887 247.6 387.487 248.3 384.287 249.7C381.187 251 378.437 252.9 376.037 255.4C373.637 257.8 371.737 260.7 370.337 264.1C369.037 267.5 368.387 271.2 368.387 275.2V277C368.387 281.2 369.037 285 370.337 288.4C371.737 291.7 373.637 294.5 376.037 296.8C378.437 299.1 381.237 300.9 384.437 302.2C387.637 303.4 391.087 304 394.787 304C398.487 304 401.687 303.45 404.387 302.35C407.187 301.15 409.537 299.65 411.437 297.85C413.437 295.95 414.987 293.8 416.087 291.4C417.287 289 418.087 286.5 418.487 283.9L430.187 286.6Z" fill="black"/>
</svg>
