<svg width="512" height="512" viewBox="0 0 512 512" fill="none" xmlns="http://www.w3.org/2000/svg">
<rect width="512" height="512" rx="50" fill="#040404"/>
<path d="M76.3795 304.4V285.92L161.739 257.32V254.68L76.3795 226.08V207.6L168.339 239.28V272.72L76.3795 304.4ZM224.286 333H207.126V179H224.286V241.04H226.926C230.74 234.44 236.02 229.453 242.766 226.08C249.513 222.56 256.846 220.8 264.766 220.8C271.513 220.8 277.893 222.047 283.906 224.54C289.92 227.033 295.2 230.627 299.746 235.32C304.44 240.013 308.106 245.807 310.746 252.7C313.533 259.593 314.926 267.44 314.926 276.24V280.64C314.926 289.587 313.606 297.507 310.966 304.4C308.326 311.293 304.66 317.087 299.966 321.78C295.42 326.473 290.066 330.067 283.906 332.56C277.746 334.907 271.22 336.08 264.326 336.08C260.806 336.08 257.213 335.64 253.546 334.76C249.88 334.027 246.36 332.853 242.986 331.24C239.76 329.48 236.753 327.427 233.966 325.08C231.18 322.587 228.833 319.653 226.926 316.28H224.286V333ZM260.806 319.8C266.086 319.8 270.926 318.92 275.326 317.16C279.726 315.253 283.54 312.613 286.766 309.24C290.14 305.867 292.706 301.76 294.466 296.92C296.373 292.08 297.326 286.653 297.326 280.64V276.24C297.326 270.373 296.373 265.093 294.466 260.4C292.706 255.56 290.14 251.453 286.766 248.08C283.54 244.56 279.653 241.847 275.106 239.94C270.706 238.033 265.94 237.08 260.806 237.08C255.673 237.08 250.906 238.107 246.506 240.16C242.106 242.067 238.22 244.78 234.846 248.3C231.62 251.82 229.053 256.073 227.146 261.06C225.24 265.9 224.286 271.253 224.286 277.12V279.76C224.286 285.773 225.24 291.273 227.146 296.26C229.053 301.1 231.62 305.28 234.846 308.8C238.22 312.32 242.106 315.033 246.506 316.94C250.906 318.847 255.673 319.8 260.806 319.8ZM443.474 294.28C442.3 300.293 440.247 305.867 437.314 311C434.527 316.133 430.934 320.607 426.534 324.42C422.134 328.087 417 330.947 411.134 333C405.267 335.053 398.74 336.08 391.554 336.08C383.927 336.08 376.667 334.833 369.774 332.34C363.027 329.847 357.087 326.253 351.954 321.56C346.82 316.72 342.714 310.853 339.634 303.96C336.7 297.067 335.234 289.147 335.234 280.2V277.56C335.234 268.76 336.7 260.84 339.634 253.8C342.714 246.76 346.82 240.82 351.954 235.98C357.087 231.14 363.027 227.4 369.774 224.76C376.667 222.12 383.927 220.8 391.554 220.8C398.447 220.8 404.827 221.827 410.694 223.88C416.56 225.933 421.694 228.867 426.094 232.68C430.64 236.347 434.307 240.747 437.094 245.88C440.027 251.013 442.007 256.587 443.034 262.6L425.874 266.56C425.434 262.747 424.334 259.08 422.574 255.56C420.96 251.893 418.687 248.74 415.754 246.1C412.967 243.313 409.52 241.113 405.414 239.5C401.307 237.887 396.54 237.08 391.114 237.08C385.834 237.08 380.847 238.107 376.154 240.16C371.607 242.067 367.574 244.853 364.054 248.52C360.534 252.04 357.747 256.293 355.694 261.28C353.787 266.267 352.834 271.693 352.834 277.56V280.2C352.834 286.36 353.787 291.933 355.694 296.92C357.747 301.76 360.534 305.867 364.054 309.24C367.574 312.613 371.68 315.253 376.374 317.16C381.067 318.92 386.127 319.8 391.554 319.8C396.98 319.8 401.674 318.993 405.634 317.38C409.74 315.62 413.187 313.42 415.974 310.78C418.907 307.993 421.18 304.84 422.794 301.32C424.554 297.8 425.727 294.133 426.314 290.32L443.474 294.28Z" fill="white"/>
</svg>
